<svg xmlns="http://www.w3.org/2000/svg" viewBox="0 0 64 64" width="64" height="64" role="img" aria-label="JSON Formatter & C# Generator">
  <!-- Minimal, high-contrast favicon: deep slate background with monoline glyphs -->
  <rect x="4" y="4" width="56" height="56" rx="12" fill="#0f172a"/>

  <!-- JSON brace { (monoline, centered left) -->
  <path d="M24 18c-3 0-5 2.5-5 5.5 0 2.2 0 3.5-2 5 2 1.5 2 2.8 2 5 0 3 2 5.5 5 5.5" fill="none" stroke="#ffffff" stroke-width="3.5" stroke-linecap="round"/>

  <!-- C# sharp (compact) -->
  <g transform="translate(33,22) scale(0.9)" stroke="#38bdf8" stroke-width="3" stroke-linecap="round">
    <line x1="6" y1="0" x2="6" y2="16"/>
    <line x1="12" y1="0" x2="12" y2="16"/>
    <line x1="2" y1="5" x2="16" y2="5"/>
    <line x1="2" y1="11" x2="16" y2="11"/>
  </g>

  <!-- Subtle accent dot suggesting transformation -->
  <circle cx="46.5" cy="14.5" r="2" fill="#22d3ee"/>
</svg>

<svg xmlns="http://www.w3.org/2000/svg" viewBox="0 0 64 64" width="64" height="64" role="img" aria-label="JSON Formatter & C# Generator">
  <!-- Background rounded square with subtle gradient -->
  <defs>
    <linearGradient id="bg" x1="0" y1="0" x2="1" y2="1">
      <stop offset="0%" stop-color="#00D4FF"/>
      <stop offset="100%" stop-color="#0066FF"/>
    </linearGradient>
  </defs>
  <rect x="4" y="4" width="56" height="56" rx="12" fill="url(#bg)"/>

  <!-- Left JSON brace { -->
  <path d="M22 18c-3 0-5 2.5-5 5.5 0 2.2 0 3.5-2 5 2 1.5 2 2.8 2 5 0 3 2 5.5 5 5.5" fill="none" stroke="#ffffff" stroke-width="3.5" stroke-linecap="round"/>

  <!-- Right angle bracket ] to hint JSON arrays -->
  <path d="M42 18l6 14-6 14" fill="none" stroke="#ffffff" stroke-width="3.5" stroke-linecap="round" stroke-linejoin="round"/>

  <!-- C# hash symbol -->
  <g transform="translate(26,24) scale(0.8)" stroke="#ffffff" stroke-width="3" stroke-linecap="round">
    <line x1="6" y1="0" x2="6" y2="16"/>
    <line x1="12" y1="0" x2="12" y2="16"/>
    <line x1="2" y1="5" x2="16" y2="5"/>
    <line x1="2" y1="11" x2="16" y2="11"/>
  </g>

  <!-- Small spark to suggest "generation"/innovation -->
  <g transform="translate(48,12)" fill="none" stroke="#ffffff" stroke-width="2" stroke-linecap="round">
    <line x1="0" y1="0" x2="0" y2="3"/>
    <line x1="0" y1="0" x2="3" y2="0"/>
    <line x1="0" y1="0" x2="-2.2" y2="-2.2"/>
  </g>
</svg>


